<?xml version="1.0" encoding="UTF-8" standalone="no"?>
<svg
   xmlns:dc="http://purl.org/dc/elements/1.1/"
   xmlns:cc="http://creativecommons.org/ns#"
   xmlns:rdf="http://www.w3.org/1999/02/22-rdf-syntax-ns#"
   xmlns:svg="http://www.w3.org/2000/svg"
   xmlns="http://www.w3.org/2000/svg"
   xmlns:sodipodi="http://sodipodi.sourceforge.net/DTD/sodipodi-0.dtd"
   xmlns:inkscape="http://www.inkscape.org/namespaces/inkscape"
   height="512"
   width="512"
   version="1.1"
   id="svg4"
   sodipodi:docname="github.svg"
   inkscape:version="1.0.2-2 (e86c870879, 2021-01-15)">
  <metadata
     id="metadata10">
    <rdf:RDF>
      <cc:Work
         rdf:about="">
        <dc:format>image/svg+xml</dc:format>
        <dc:type
           rdf:resource="http://purl.org/dc/dcmitype/StillImage" />
        <dc:title></dc:title>
      </cc:Work>
    </rdf:RDF>
  </metadata>
  <defs
     id="defs8" />
  <sodipodi:namedview
     pagecolor="#ffffff"
     bordercolor="#666666"
     borderopacity="1"
     objecttolerance="10"
     gridtolerance="10"
     guidetolerance="10"
     inkscape:pageopacity="0"
     inkscape:pageshadow="2"
     inkscape:window-width="1680"
     inkscape:window-height="987"
     id="namedview6"
     showgrid="false"
     inkscape:zoom="1.0150849"
     inkscape:cx="347.48336"
     inkscape:cy="289.49855"
     inkscape:window-x="-8"
     inkscape:window-y="-8"
     inkscape:window-maximized="1"
     inkscape:current-layer="svg4"
     inkscape:document-rotation="0" />
  <path
     d="M 256,0 C 114.625,0 0,111.72737 0,249.52852 0,359.7938 73.344,453.30608 175.078,486.29404 c 12.797,2.28474 17.469,-5.42189 17.469,-12.00125 0,-5.93995 -0.2345,-25.61664 -0.3595,-46.45129 C 121,442.91896 105.953,398.41711 105.953,398.41711 94.297004,369.60193 77.531,361.926 77.531,361.926 c -23.2655,-15.47369 1.765,-15.16909 1.765,-15.16909 25.703,1.73598 39.235,25.70826 39.235,25.70826 22.844,38.13595 59.9375,27.10942 74.5,20.71282 2.327,-16.08289 8.952,-27.10942 16.25,-33.32327 C 152.453,353.54974 92.672004,332.1361 92.672004,236.52184 c 0,-27.26196 9.984496,-49.49729 26.327996,-66.96624 -2.6095,-6.33568 -11.422,-31.72424 2.531,-66.06755 0,0 21.469,-6.701205 70.406,25.58642 20.406,-5.55883 42.297,-8.30023 64.0625,-8.39186 21.75,0.0916 43.656,2.86325 64.094,8.42208 48.844,-32.317845 70.344,-25.58642 70.344,-25.58642 14,34.37401 5.1875,59.73186 2.5625,66.03733 16.406,17.46895 26.3125,39.70476 26.3125,66.96624 0,95.85794 -59.875,116.96649 -116.906,123.15012 9.219,7.73685 17.375,22.90594 17.375,46.1774 0,33.35397 -0.344,60.24993 -0.344,68.47413 0,6.64029 4.656,14.40735 17.625,11.97055 C 438.719,453.24516 512,359.73288 512,249.52852 512,111.72737 397.375,0 256,0 Z"
     id="path2"
     style="fill:#ffbd39;fill-opacity:1;stroke-width:0.49364" />
</svg>
