<?xml version="1.0" encoding="UTF-8" standalone="no"?>
<svg
   xmlns:dc="http://purl.org/dc/elements/1.1/"
   xmlns:cc="http://creativecommons.org/ns#"
   xmlns:rdf="http://www.w3.org/1999/02/22-rdf-syntax-ns#"
   xmlns:svg="http://www.w3.org/2000/svg"
   xmlns="http://www.w3.org/2000/svg"
   xmlns:sodipodi="http://sodipodi.sourceforge.net/DTD/sodipodi-0.dtd"
   xmlns:inkscape="http://www.inkscape.org/namespaces/inkscape"
   height="100%"
   style="fill-rule:evenodd;clip-rule:evenodd;stroke-linejoin:round;stroke-miterlimit:2;"
   version="1.1"
   viewBox="0 0 512 512"
   width="100%"
   xml:space="preserve"
   id="svg4"
   sodipodi:docname="twitter.svg"
   inkscape:version="1.0.2-2 (e86c870879, 2021-01-15)"><metadata
     id="metadata10"><rdf:RDF><cc:Work
         rdf:about=""><dc:format>image/svg+xml</dc:format><dc:type
           rdf:resource="http://purl.org/dc/dcmitype/StillImage" /><dc:title></dc:title></cc:Work></rdf:RDF></metadata><defs
     id="defs8" /><sodipodi:namedview
     pagecolor="#ffffff"
     bordercolor="#666666"
     borderopacity="1"
     objecttolerance="10"
     gridtolerance="10"
     guidetolerance="10"
     inkscape:pageopacity="0"
     inkscape:pageshadow="2"
     inkscape:window-width="1680"
     inkscape:window-height="987"
     id="namedview6"
     showgrid="false"
     inkscape:zoom="1.0150849"
     inkscape:cx="469.28265"
     inkscape:cy="256"
     inkscape:window-x="-8"
     inkscape:window-y="-8"
     inkscape:window-maximized="1"
     inkscape:current-layer="svg4"
     inkscape:document-rotation="0" /><path
     d="M256,0c141.29,0 256,114.71 256,256c0,141.29 -114.71,256 -256,256c-141.29,0 -256,-114.71 -256,-256c0,-141.29 114.71,-256 256,-256Zm-45.091,392.158c113.283,0 175.224,-93.87 175.224,-175.223c0,-2.682 0,-5.364 -0.128,-7.919c12.005,-8.684 22.478,-19.54 30.779,-31.928c-10.983,4.853 -22.861,8.174 -35.377,9.706c12.772,-7.663 22.478,-19.668 27.076,-34.099c-11.878,7.024 -25.032,12.132 -39.081,14.942c-11.239,-12.005 -27.203,-19.412 -44.955,-19.412c-33.972,0 -61.558,27.586 -61.558,61.558c0,4.853 0.511,9.578 1.66,14.048c-51.213,-2.554 -96.552,-27.075 -126.947,-64.368c-5.237,9.068 -8.302,19.668 -8.302,30.907c0,21.328 10.856,40.23 27.459,51.213c-10.09,-0.255 -19.541,-3.065 -27.842,-7.662l0,0.766c0,29.885 21.2,54.661 49.425,60.409c-5.108,1.404 -10.6,2.171 -16.219,2.171c-3.96,0 -7.791,-0.383 -11.622,-1.15c7.79,24.521 30.523,42.274 57.471,42.784c-21.073,16.476 -47.637,26.31 -76.501,26.31c-4.981,0 -9.834,-0.256 -14.687,-0.894c26.948,17.624 59.387,27.841 94.125,27.841Z"
     id="path2"
     style="fill:#ffbd39;fill-opacity:1;stroke:none;stroke-opacity:1" /></svg>
